<svg width="21" height="21" viewBox="0 0 21 21" fill="none" xmlns="http://www.w3.org/2000/svg">
<g id="Frame">
<path id="Vector" d="M3.76953 14.6967H3.35286C3.13185 14.6967 2.91989 14.6089 2.76361 14.4526C2.60733 14.2963 2.51953 14.0844 2.51953 13.8633C2.51953 13.2003 2.78292 12.5644 3.25176 12.0956C3.72061 11.6267 4.35649 11.3633 5.01953 11.3633H5.85286M5.85286 8.82168C5.54688 8.7591 5.25888 8.62852 5.01017 8.43961C4.76146 8.2507 4.55841 8.00828 4.41603 7.7303C4.27366 7.45232 4.19561 7.14588 4.18765 6.83366C4.1797 6.52144 4.24204 6.21143 4.37008 5.92656C4.49811 5.64169 4.68855 5.38925 4.92732 5.18791C5.16608 4.98658 5.44706 4.84151 5.74946 4.76342C6.05186 4.68534 6.36795 4.67625 6.67434 4.73682C6.98074 4.79739 7.26959 4.92607 7.51953 5.11335M16.2695 14.6967H16.6862C16.9072 14.6967 17.1192 14.6089 17.2755 14.4526C17.4317 14.2963 17.5195 14.0844 17.5195 13.8633C17.5195 13.2003 17.2561 12.5644 16.7873 12.0956C16.3185 11.6267 15.6826 11.3633 15.0195 11.3633H14.1862M14.1862 8.82168C14.4922 8.7591 14.7802 8.62852 15.0289 8.43961C15.2776 8.2507 15.4807 8.00828 15.623 7.7303C15.7654 7.45232 15.8435 7.14588 15.8514 6.83366C15.8594 6.52144 15.797 6.21143 15.669 5.92656C15.541 5.64169 15.3505 5.38925 15.1117 5.18791C14.873 4.98658 14.592 4.84151 14.2896 4.76342C13.9872 4.68534 13.6711 4.67625 13.3647 4.73682C13.0583 4.79739 12.7695 4.92607 12.5195 5.11335M12.9362 16.3633H7.10286C6.88185 16.3633 6.66989 16.2756 6.51361 16.1193C6.35733 15.963 6.26953 15.751 6.26953 15.53C6.26953 14.867 6.53292 14.2311 7.00176 13.7622C7.4706 13.2934 8.10649 13.03 8.76953 13.03H11.2695C11.9326 13.03 12.5685 13.2934 13.0373 13.7622C13.5061 14.2311 13.7695 14.867 13.7695 15.53C13.7695 15.751 13.6817 15.963 13.5255 16.1193C13.3692 16.2756 13.1572 16.3633 12.9362 16.3633ZM12.1029 8.44668C12.1029 8.99922 11.8834 9.52912 11.4927 9.91982C11.102 10.3105 10.5721 10.53 10.0195 10.53C9.467 10.53 8.93709 10.3105 8.54639 9.91982C8.15569 9.52912 7.9362 8.99922 7.9362 8.44668C7.9362 7.89415 8.15569 7.36424 8.54639 6.97354C8.93709 6.58284 9.467 6.36335 10.0195 6.36335C10.5721 6.36335 11.102 6.58284 11.4927 6.97354C11.8834 7.36424 12.1029 7.89415 12.1029 8.44668Z" stroke="white" stroke-width="1.5" stroke-linecap="round"/>
</g>
</svg>
