<svg width="25" height="24" viewBox="0 0 25 24" fill="none" xmlns="http://www.w3.org/2000/svg">
<g clip-path="url(#clip0_1366_25907)">
<path d="M16.5 13V21M8.50003 13V21M12.5 15V23M20.5 16.58C21.5513 16.1195 22.4121 15.3115 22.9381 14.2915C23.4641 13.2715 23.6232 12.1016 23.3886 10.9781C23.1541 9.85472 22.5402 8.84617 21.6501 8.12179C20.7599 7.39742 19.6477 7.00131 18.5 6.99996H17.24C16.9231 5.77248 16.3189 4.63791 15.4773 3.68976C14.6358 2.74161 13.581 2.00703 12.3998 1.54658C11.2186 1.08612 9.94494 0.912974 8.68372 1.0414C7.42249 1.16983 6.20984 1.59615 5.14573 2.28524C4.08161 2.97433 3.1965 3.90644 2.56334 5.00475C1.93018 6.10307 1.56711 7.33613 1.50404 8.60231C1.44098 9.86849 1.67974 11.1315 2.20064 12.2873C2.72153 13.4431 3.50965 14.4585 4.50003 15.25" stroke="#344054" stroke-width="1.67" stroke-linecap="round" stroke-linejoin="round"/>
</g>
<defs>
<clipPath id="clip0_1366_25907">
<rect width="24" height="24" fill="white" transform="translate(0.5)"/>
</clipPath>
</defs>
</svg>
