<svg width="32" height="32" viewBox="0 0 32 32" fill="none" xmlns="http://www.w3.org/2000/svg">
<g id="file-text">
<path id="Icon" d="M18.6673 2.6665H8.00065C7.29341 2.6665 6.61513 2.94746 6.11503 3.44755C5.61494 3.94765 5.33398 4.62593 5.33398 5.33317V26.6665C5.33398 27.3737 5.61494 28.052 6.11503 28.5521C6.61513 29.0522 7.29341 29.3332 8.00065 29.3332H24.0006C24.7079 29.3332 25.3862 29.0522 25.8863 28.5521C26.3864 28.052 26.6673 27.3737 26.6673 26.6665V10.6665M18.6673 2.6665L26.6673 10.6665M18.6673 2.6665V10.6665H26.6673M21.334 17.3332H10.6673M21.334 22.6665H10.6673M13.334 11.9998H10.6673" stroke="black" stroke-width="1.67" stroke-linecap="round" stroke-linejoin="round"/>
</g>
</svg>
