<svg width="21" height="21" viewBox="0 0 21 21" fill="none" xmlns="http://www.w3.org/2000/svg">
<path d="M12.6512 2.14917H5.97164C5.52876 2.14917 5.10402 2.3251 4.79085 2.63827C4.47769 2.95143 4.30176 3.37617 4.30176 3.81905V17.1781C4.30176 17.621 4.47769 18.0457 4.79085 18.3589C5.10402 18.672 5.52876 18.848 5.97164 18.848H15.9909C16.4338 18.848 16.8585 18.672 17.1717 18.3589C17.4849 18.0457 17.6608 17.621 17.6608 17.1781V7.15881M12.6512 2.14917L17.6608 7.15881M12.6512 2.14917V7.15881H17.6608M14.321 11.3335H7.64152M14.321 14.6733H7.64152M9.3114 7.99375H7.64152" stroke="white" stroke-width="1.66988" stroke-linecap="round" stroke-linejoin="round"/>
</svg>
