<svg width="25" height="24" viewBox="0 0 25 24" fill="none" xmlns="http://www.w3.org/2000/svg">
<path d="M12.5 13C13.2956 13 14.0587 12.6839 14.6213 12.1213C15.1839 11.5587 15.5 10.7956 15.5 10C15.5 9.20435 15.1839 8.44129 14.6213 7.87868C14.0587 7.31607 13.2956 7 12.5 7C11.7044 7 10.9413 7.31607 10.3787 7.87868C9.81607 8.44129 9.5 9.20435 9.5 10C9.5 10.7956 9.81607 11.5587 10.3787 12.1213C10.9413 12.6839 11.7044 13 12.5 13Z" stroke="#667085" stroke-width="2" stroke-linecap="round" stroke-linejoin="round"/>
<path d="M18.3013 13.9392H18.2903C19.0121 12.8811 19.4298 11.6453 19.4979 10.3663C19.566 9.08729 19.2819 7.81411 18.6765 6.68541C18.0711 5.5567 17.1676 4.61574 16.0644 3.96498C14.9612 3.31422 13.7006 2.97861 12.4199 2.99469C11.1392 3.01078 9.88742 3.37795 8.80093 4.05621C7.71444 4.73448 6.83487 5.69784 6.258 6.8414C5.68113 7.98495 5.42907 9.26486 5.52927 10.5418C5.62947 11.8187 6.07809 13.0436 6.82627 14.0832H6.81027L6.95027 14.2542C7.05027 14.3812 7.15027 14.5052 7.25027 14.6252L12.5013 21.0012L17.6313 14.7532C17.8253 14.5442 18.0053 14.3242 18.1713 14.0942L18.3013 13.9392Z" stroke="#667085" stroke-width="2" stroke-linecap="round" stroke-linejoin="round"/>
</svg>
