<svg width="270" height="140" viewBox="0 0 270 140" fill="none" xmlns="http://www.w3.org/2000/svg">
<g clip-path="url(#clip0_1848_20549)">
<path d="M59.2432 127.628C59.2432 127.628 57.7966 123.673 55.944 118.533H55.8625V118.305C54.1473 113.548 52.1013 107.83 50.5381 103.306V118.484H44.3041V96.9428H48.4121C48.2523 96.4306 48.15 96.0413 48.1004 95.7988C47.8367 94.5223 48.1484 93.7245 48.6055 93.0527H30.4951V139.326H65.0839V138.445C61.2109 136.602 60.1064 129.953 59.2432 127.628ZM39.1028 118.533H32.8688V96.9923H39.1028V118.533Z" stroke="#111111" stroke-width="0.960582" stroke-linecap="round" stroke-linejoin="round"/>
<path d="M50.5361 122.208V120.191H44.3086V122.208H50.5361Z" fill="#6D6D6D"/>
<path d="M55.8623 122.254V120.237H56.4537L57.0084 122.254H55.8623Z" fill="#6D6D6D"/>
<path d="M39.1006 122.254V120.237H32.873V122.254H39.1006Z" fill="#6D6D6D"/>
<path d="M47.3039 133.51C48.5115 133.51 49.4905 132.532 49.4905 131.327C49.4905 130.121 48.5115 129.144 47.3039 129.144C46.0962 129.144 45.1172 130.121 45.1172 131.327C45.1172 132.532 46.0962 133.51 47.3039 133.51Z" stroke="#111111" stroke-width="0.960582" stroke-linecap="round" stroke-linejoin="round"/>
<path d="M60.6451 132.632C60.4077 132.969 60.0796 133.232 59.6987 133.391C59.3179 133.549 58.8998 133.597 58.4929 133.529C58.086 133.46 57.7068 133.278 57.3991 133.003C57.0915 132.729 56.8679 132.373 56.7544 131.977C56.6408 131.581 56.6418 131.161 56.7573 130.765C56.8728 130.37 57.098 130.015 57.407 129.742C57.7159 129.469 58.096 129.289 58.5033 129.222C58.9105 129.155 59.3283 129.205 59.7084 129.366" stroke="#111111" stroke-width="0.960582" stroke-linecap="round" stroke-linejoin="round"/>
<path d="M35.8673 133.558C37.075 133.558 38.054 132.58 38.054 131.375C38.054 130.169 37.075 129.192 35.8673 129.192C34.6597 129.192 33.6807 130.169 33.6807 131.375C33.6807 132.58 34.6597 133.558 35.8673 133.558Z" stroke="#111111" stroke-width="0.960582" stroke-linecap="round" stroke-linejoin="round"/>
<path d="M50.5381 103.537V118.491H44.3105V96.9458H48.2555" stroke="#111111" stroke-width="0.960582" stroke-linecap="round" stroke-linejoin="round"/>
<path d="M50.1127 102.071H44.9082" stroke="#111111" stroke-width="0.960582" stroke-linecap="round" stroke-linejoin="round"/>
<path d="M50.1127 104.443H44.9082" stroke="#111111" stroke-width="0.960582" stroke-linecap="round" stroke-linejoin="round"/>
<path d="M50.1127 106.816H44.9082" stroke="#111111" stroke-width="0.960582" stroke-linecap="round" stroke-linejoin="round"/>
<path d="M39.1006 118.538V96.9937H32.873V118.538H39.1006Z" stroke="#111111" stroke-width="0.960582" stroke-linecap="round" stroke-linejoin="round"/>
<path d="M38.6803 111.989H33.3223" stroke="#111111" stroke-width="0.960582" stroke-linecap="round" stroke-linejoin="round"/>
<path d="M38.6803 99.7461H33.3223" stroke="#111111" stroke-width="0.960582" stroke-linecap="round" stroke-linejoin="round"/>
<path d="M38.6803 114.362H33.3223" stroke="#111111" stroke-width="0.960582" stroke-linecap="round" stroke-linejoin="round"/>
<path d="M38.6803 116.734H33.3223" stroke="#111111" stroke-width="0.960582" stroke-linecap="round" stroke-linejoin="round"/>
<path d="M54.5382 75.2953C54.2492 74.483 53.8208 73.7271 53.2722 73.0614C51.2869 70.6472 51.263 69.1138 50.1441 67.957C49.0251 66.8002 47.2493 67.3284 48.8477 71.252C49.1003 71.8711 49.3299 72.4333 49.5366 72.9385" stroke="#111111" stroke-width="0.960582" stroke-linecap="round" stroke-linejoin="round"/>
<path d="M46.3076 72.6577C47.9348 72.6816 53.3408 73.0885 56.3107 77.5132" stroke="#111111" stroke-width="0.960582" stroke-linecap="round" stroke-linejoin="round"/>
<path d="M46.3975 76.1262C49.8341 75.4018 58.4178 74.6455 60.1026 84.583" stroke="#111111" stroke-width="0.960582" stroke-linecap="round" stroke-linejoin="round"/>
<path d="M51.6979 87.5607C51.2296 85.9347 50.6765 84.3934 50.0739 83.4536C48.306 80.6963 44.3579 80.9006 44.3579 80.9006C44.3579 80.9006 34.3196 72.0146 32.8666 70.4094C31.4136 68.8042 31.9699 67.274 34.5674 69.0579C35.9085 69.9786 38.6402 71.93 40.9612 73.607" stroke="#111111" stroke-width="0.960582" stroke-linecap="round" stroke-linejoin="round"/>
<path d="M44.187 80.5048C44.187 80.5048 39.032 69.0722 38.26 66.9182C37.4879 64.7641 38.5317 63.628 40.2852 66.4857C41.0461 67.7271 42.2305 69.677 43.3223 71.4912" stroke="#111111" stroke-width="0.960582" stroke-linecap="round" stroke-linejoin="round"/>
<path d="M43.6992 79.5904C43.6992 79.5904 43.2884 69.7838 43.29 67.8834C43.29 64.7512 45.1746 63.8608 45.6605 68.0828C45.9802 70.9023 46.3431 76.0992 46.3431 76.0992" stroke="#111111" stroke-width="0.960582" stroke-linecap="round" stroke-linejoin="round"/>
<path d="M192.141 75.4752C192.43 74.5966 192.881 73.7791 193.469 73.0642C195.456 70.6485 195.477 69.1135 196.6 67.9583C197.724 66.8031 199.493 67.3296 197.895 71.2532C197.625 71.9202 197.38 72.5212 197.16 73.0563" stroke="#111111" stroke-width="0.960582" stroke-linecap="round" stroke-linejoin="round"/>
<path d="M200.57 72.6558C199.149 72.6558 193.639 72.9494 190.554 77.3357" stroke="#111111" stroke-width="0.960582" stroke-linecap="round" stroke-linejoin="round"/>
<path d="M200.307 76.1186C196.846 75.3974 188.319 74.6825 186.639 84.5753" stroke="#111111" stroke-width="0.960582" stroke-linecap="round" stroke-linejoin="round"/>
<path d="M195.161 87.1523C195.604 85.6796 196.12 84.3121 196.667 83.4505C198.435 80.6933 202.383 80.8975 202.383 80.8975C202.383 80.8975 212.418 72.0131 213.874 70.4079C215.33 68.8028 214.771 67.2726 212.173 69.0565C210.797 70.0011 207.958 72.0339 205.594 73.7348" stroke="#111111" stroke-width="0.960582" stroke-linecap="round" stroke-linejoin="round"/>
<path d="M202.555 80.5048C202.555 80.5048 207.71 69.0722 208.482 66.9182C209.254 64.7641 208.21 63.628 206.458 66.4857C205.681 67.7495 204.466 69.752 203.354 71.5917" stroke="#111111" stroke-width="0.960582" stroke-linecap="round" stroke-linejoin="round"/>
<path d="M203.352 71.6139C203.409 69.9433 203.452 68.4993 203.451 67.8834C203.451 64.7512 201.566 63.8608 201.08 68.0828C200.761 70.9023 200.399 76.0992 200.399 76.0992" stroke="#111111" stroke-width="0.960582" stroke-linecap="round" stroke-linejoin="round"/>
<path d="M203.042 79.5904C203.042 79.5904 203.231 75.1067 203.353 71.6123" stroke="#111111" stroke-width="0.960582" stroke-linecap="round" stroke-linejoin="round"/>
<path d="M101.659 63.124C93.7277 67.0796 91.2245 73.2817 92.0573 79.7423H91.9806C91.9806 79.7423 81.5491 79.6035 75.7052 96.9335C73.9932 92.9125 72.2557 88.9778 71.5093 87.7459C69.8101 84.9504 64.0093 86.2062 62.494 84.2643C60.9787 82.3224 60.4416 81.7113 60.4416 81.7113C60.4416 81.7113 55.934 87.0822 50.3042 86.4806C50.3042 86.4806 49.9845 87.4476 50.1987 89.8889C50.4129 92.3301 47.4382 92.6094 48.1016 95.8022C48.7649 98.995 59.238 127.628 59.238 127.628C60.2258 130.29 61.5301 138.617 66.9425 138.914C66.9572 138.953 66.9828 138.987 67.0163 139.011C67.0497 139.036 67.0896 139.05 67.1311 139.053C75.7132 139.029 180.654 139.117 180.654 139.117C180.654 139.117 180.664 139.003 180.675 138.79C185.351 137.689 186.562 130.138 187.494 127.628C187.494 127.628 197.969 98.995 198.631 95.8022C199.292 92.6094 196.322 92.3301 196.535 89.8889C196.748 87.4476 196.428 86.4806 196.428 86.4806C190.805 87.0742 186.295 81.7129 186.295 81.7129C186.295 81.7129 185.758 82.3193 184.245 84.2659C182.731 86.2126 179.857 84.0138 178.159 86.8093C176.788 89.0687 171.925 100.91 170.108 105.369C164.593 88.9969 157.498 80.6774 145.922 78.5839C145.163 73.9917 143.137 68.7789 138.011 64.9909" stroke="#111111" stroke-width="0.960582" stroke-linecap="round" stroke-linejoin="round"/>
<path d="M196.3 89.5312C196.701 86.9782 196.493 85.9953 196.493 85.9953C191.356 87.1043 186.608 81.2739 186.608 81.2739C186.608 81.2739 186.07 81.9505 184.53 84.1014C184.092 84.7572 183.418 85.2199 182.647 85.3938C184.78 92.322 194.065 93.2123 197.547 93.2953C197.288 91.7842 195.996 91.4699 196.3 89.5312Z" fill="#111111"/>
<path d="M50.1354 89.5185C49.7342 86.9655 50.2489 85.9953 50.2489 85.9953C55.3879 87.1043 60.1353 81.2739 60.1353 81.2739C60.1353 81.2739 60.9089 81.3601 62.4451 83.5078C63.0636 84.3742 64.1266 85.1034 64.7676 85.2805C62.6353 92.2071 51.956 93.1469 48.4746 93.2315C48.7368 91.7252 50.4391 91.4587 50.1354 89.5185Z" fill="#111111"/>
<path d="M92.4364 79.4233C89.313 80.0616 85.6382 81.4817 82.7754 84.6522C85.44 88.5008 95.1825 101.808 112.347 104.597C112.333 104.479 112.307 104.361 112.27 104.248C102.754 100.34 93.4418 89.506 92.4364 79.4233Z" fill="#111111"/>
<path d="M145.289 77.6538C145.884 81.1993 145.721 84.3825 145.641 86.2621C145.377 92.4755 143.093 96.7661 141.338 99.8584L141.002 102.081C148.251 100.375 154.277 88.8375 155.247 82.2348C152.674 80.8355 151.593 78.9271 145.289 77.6538Z" fill="#111111"/>
<path d="M112.148 100.129C112.148 100.129 119.038 111.994 119.752 119.489" stroke="#111111" stroke-width="1.28078" stroke-linecap="round" stroke-linejoin="round"/>
<path d="M140.065 99.834C140.065 99.834 137.156 111.509 137.944 118.997" stroke="#111111" stroke-width="1.28078" stroke-linecap="round" stroke-linejoin="round"/>
<path d="M75.5195 96.3047L82.9907 113.761" stroke="#111111" stroke-width="0.960582" stroke-linecap="round" stroke-linejoin="round"/>
<path d="M170.364 104.886L165.272 114.815" stroke="#111111" stroke-width="0.960582" stroke-linecap="round" stroke-linejoin="round"/>
<path d="M97.8721 126.494C97.8721 126.494 97.2327 139.485 90.4297 139.182" stroke="#111111" stroke-width="0.960582" stroke-linecap="round" stroke-linejoin="round"/>
<path d="M135.927 105.112C139.585 94.3037 138.164 80.7394 135.693 78.7736C135.196 78.3795 133.701 78.0795 131.63 77.8513C130.764 77.7572 130.086 78.3858 130.086 78.3858L133.158 78.8645C131.788 91.9677 125.93 96.0972 125.93 96.0972C116.382 85.089 105.706 77.7093 105.706 77.7093L106.474 77.1812L105.93 77.1891L101.024 78.8757C101.024 78.8757 119.702 96.1977 125.233 127.805C126.101 132.761 126.687 136.656 127.078 139.712L136.536 139.158C135.118 128.191 133.609 111.974 135.927 105.112Z" fill="#111111"/>
<path d="M110.022 70.6934L109.782 74.9042L105.706 77.7093C105.706 77.7093 116.382 85.089 125.93 96.1115C125.93 96.1115 131.788 91.9773 133.158 78.8789L130.086 78.4002" stroke="#111111" stroke-width="0.960582" stroke-linecap="round" stroke-linejoin="round"/>
<path d="M104.719 55.5591C103.068 56.0282 99.671 57.5392 101.042 61.8394C102.23 65.562 105.544 64.9812 107.633 64.1738" stroke="#111111" stroke-width="0.960582" stroke-linecap="round" stroke-linejoin="round"/>
<path d="M135.865 40.0879C137.449 46.4895 137.91 53.491 137.889 58.8986L135.865 40.0879Z" fill="white"/>
<path d="M135.865 40.0879C137.449 46.4895 137.91 53.491 137.889 58.8986" stroke="#111111" stroke-width="0.960582" stroke-linecap="round" stroke-linejoin="round"/>
<path d="M108.124 54.0034C109.287 54.9432 112.785 60.7449 113.795 63.5229C113.795 63.5229 120.44 60.3045 130.336 58.9881C130.336 58.9881 135.754 58.4632 137.984 58.8684C137.984 58.8684 138.676 69.0469 134.896 74.8054C131.116 80.564 121.68 80.1906 116.973 77.5499C112.265 74.9092 111.378 73.4938 109.984 70.2404C108.59 66.9869 104.49 54.7278 104.49 54.7278L108.124 54.0034Z" stroke="#111111" stroke-width="0.960582" stroke-linecap="round" stroke-linejoin="round"/>
<path d="M105.554 56.4958C105.554 56.4958 102.061 52.1796 100.372 47.4694C98.7733 43.0416 100.33 38.0266 104.254 35.5023C107.538 33.3913 110.268 34.4316 110.268 34.4316C110.268 34.4316 105.859 28.4864 110.762 22.214C111.612 21.1214 112.679 20.2153 113.896 19.552C115.112 18.8888 116.453 18.4827 117.833 18.359C124.615 17.7766 127.358 23.3325 127.358 23.3325C127.358 23.3325 133.076 9.00552 148.813 15.2683C150.4 15.9066 152.337 17.9489 153.316 19.3658C159.249 27.9598 144.321 40.6864 136.011 42.5214C126.884 44.5351 121.305 43.6096 118.073 41.663C120.437 42.7544 119.529 57.059 105.554 56.4958Z" fill="#111111"/>
<path d="M129.509 52.6074L131.517 61.3099L128.936 61.8955" stroke="#111111" stroke-width="1.28078" stroke-linecap="round" stroke-linejoin="round"/>
<path d="M132.935 56.1001C133.427 56.0452 133.756 55.3745 133.669 54.602C133.583 53.8296 133.114 53.2479 132.622 53.3029C132.129 53.3578 131.801 54.0285 131.887 54.801C131.974 55.5734 132.443 56.155 132.935 56.1001Z" fill="#111111"/>
<path d="M124.413 56.667C124.905 56.6121 125.234 55.9413 125.147 55.1689C125.061 54.3965 124.591 53.8148 124.099 53.8698C123.607 53.9247 123.278 54.5954 123.365 55.3679C123.451 56.1403 123.92 56.7219 124.413 56.667Z" fill="#111111"/>
<path d="M121.096 53.0013C121.096 53.0013 124.742 52.7843 124.695 50.3525" stroke="#111111" stroke-width="1.28078" stroke-linecap="round" stroke-linejoin="round"/>
<path d="M131.589 46.8724C131.589 46.8724 133.987 45.9294 134.837 47.9048" stroke="#111111" stroke-width="1.28078" stroke-linecap="round" stroke-linejoin="round"/>
<path d="M128.718 65.7757C127.438 66.0095 126.135 66.0957 124.835 66.0326C124.036 65.9991 123.43 66.4921 123.667 66.9899C124.081 67.8643 125.07 68.9047 127.42 68.6318C129.735 68.3574 130.197 67.2899 130.192 66.4682C130.189 65.9735 129.442 65.6337 128.718 65.7757Z" stroke="#111111" stroke-width="0.960582" stroke-linecap="round" stroke-linejoin="round"/>
<path d="M150.059 119.389C149.721 119.389 149.391 119.489 149.11 119.676C148.83 119.863 148.611 120.129 148.482 120.441C148.352 120.752 148.318 121.095 148.384 121.425C148.45 121.756 148.613 122.059 148.852 122.298C149.09 122.536 149.395 122.698 149.726 122.764C150.057 122.83 150.4 122.796 150.712 122.667C151.024 122.538 151.291 122.32 151.478 122.04C151.666 121.759 151.766 121.43 151.766 121.093C151.765 120.641 151.585 120.208 151.265 119.888C150.945 119.569 150.511 119.389 150.059 119.389Z" fill="#111111"/>
<path d="M144.562 131.376C144.109 131.376 143.675 131.556 143.355 131.876C143.034 132.195 142.854 132.629 142.854 133.081C142.854 133.533 143.034 133.966 143.355 134.286C143.675 134.605 144.109 134.785 144.562 134.785H144.57C145.022 134.784 145.456 134.603 145.776 134.283C146.095 133.962 146.274 133.529 146.273 133.077C146.272 132.625 146.091 132.192 145.77 131.873C145.449 131.554 145.014 131.375 144.562 131.376Z" fill="#111111"/>
<path d="M188.445 115.73H142.09V127.309L133.583 127.451L133.639 139.031L182.767 138.798L182.711 127.309H188.45L188.445 115.73ZM146.455 134.951C146.21 135.202 145.918 135.401 145.595 135.538C145.272 135.675 144.925 135.747 144.574 135.749H144.561C143.854 135.75 143.175 135.471 142.674 134.974C142.173 134.476 141.89 133.799 141.889 133.093C141.887 132.388 142.166 131.71 142.665 131.21C143.164 130.709 143.841 130.427 144.548 130.426H144.561C145.085 130.427 145.598 130.584 146.034 130.874C146.47 131.165 146.81 131.578 147.012 132.061C147.214 132.544 147.269 133.076 147.17 133.59C147.071 134.104 146.822 134.577 146.455 134.951ZM150.058 123.751C149.531 123.751 149.015 123.595 148.577 123.303C148.138 123.01 147.797 122.594 147.595 122.108C147.393 121.622 147.34 121.087 147.443 120.57C147.546 120.054 147.8 119.58 148.173 119.208C148.546 118.835 149.021 118.582 149.538 118.479C150.055 118.377 150.591 118.429 151.079 118.631C151.566 118.832 151.982 119.173 152.275 119.611C152.568 120.049 152.724 120.563 152.724 121.09C152.724 121.796 152.444 122.473 151.944 122.973C151.444 123.472 150.766 123.753 150.058 123.754V123.751ZM157.493 135.959L157.462 129.736L159.483 129.727L159.511 135.95L157.493 135.959ZM159.994 118.099H162.015V124.322H159.994V118.099ZM160.416 135.945L160.386 129.722L181.965 129.62L181.995 135.843L160.416 135.945ZM184.5 124.316H162.921V118.093H184.5V124.316Z" fill="#111111"/>
<path d="M176.86 135.158L176.838 130.539" stroke="#6D6D6D" stroke-width="0.960582" stroke-linecap="round" stroke-linejoin="round"/>
<path d="M174.483 135.169L174.461 130.55" stroke="#6D6D6D" stroke-width="0.960582" stroke-linecap="round" stroke-linejoin="round"/>
<path d="M172.106 135.18L172.084 130.561" stroke="#6D6D6D" stroke-width="0.960582" stroke-linecap="round" stroke-linejoin="round"/>
<path d="M169.478 123.537V118.918" stroke="#6D6D6D" stroke-width="0.960582" stroke-linecap="round" stroke-linejoin="round"/>
<path d="M181.742 123.537V118.918" stroke="#6D6D6D" stroke-width="0.960582" stroke-linecap="round" stroke-linejoin="round"/>
<path d="M167.101 123.537V118.918" stroke="#6D6D6D" stroke-width="0.960582" stroke-linecap="round" stroke-linejoin="round"/>
<path d="M164.724 123.537V118.918" stroke="#6D6D6D" stroke-width="0.960582" stroke-linecap="round" stroke-linejoin="round"/>
<path d="M237.091 98.8418H179.683V139.262H237.091V98.8418Z" fill="#6D6D6D"/>
<path d="M211.893 98.9346V139.493V98.9346Z" fill="#6D6D6D"/>
<path d="M211.893 98.9346V139.493" stroke="#111111" stroke-width="0.960582" stroke-linecap="round" stroke-linejoin="round"/>
<path d="M204.164 103.319H230.14" stroke="#111111" stroke-width="0.960582" stroke-linecap="round" stroke-linejoin="round"/>
<path d="M219.88 117.841H236.569" stroke="#111111" stroke-width="0.960582" stroke-linecap="round" stroke-linejoin="round"/>
<path d="M201.566 131.389H234.103" stroke="#111111" stroke-width="0.960582" stroke-linecap="round" stroke-linejoin="round"/>
<path d="M206.113 114.211H189.294" stroke="#111111" stroke-width="0.960582" stroke-linecap="round" stroke-linejoin="round"/>
<path d="M179.746 107.857H189.943" stroke="#111111" stroke-width="0.960582" stroke-linecap="round" stroke-linejoin="round"/>
<path d="M179.683 126.527H199.618" stroke="#111111" stroke-width="0.960582" stroke-linecap="round" stroke-linejoin="round"/>
<path d="M179.596 107.921C175.309 109.606 179.725 112.425 179.725 112.425C179.725 112.425 180.83 109.234 186.479 107.934L179.596 107.921Z" fill="#6D6D6D" stroke="#111111" stroke-width="0.960582" stroke-linecap="round" stroke-linejoin="round"/>
<path d="M237.259 117.774C241.544 119.459 237.127 122.28 237.127 122.28C237.127 122.28 236.025 119.089 230.374 117.787L237.259 117.774Z" fill="#6D6D6D" stroke="#111111" stroke-width="0.960582" stroke-linecap="round" stroke-linejoin="round"/>
<path d="M194.749 126.556C194.749 126.556 184.802 128.429 185.048 134.271C185.048 134.271 177.075 131.351 179.773 126.556H194.749Z" fill="#6D6D6D" stroke="#111111" stroke-width="0.960582" stroke-linecap="round" stroke-linejoin="round"/>
<path d="M-0.046875 139.212H269.292" stroke="#111111" stroke-width="1.28078" stroke-linecap="round" stroke-linejoin="round"/>
</g>
<defs>
<clipPath id="clip0_1848_20549">
<rect width="270" height="140" fill="white"/>
</clipPath>
</defs>
</svg>
