<svg width="25" height="24" viewBox="0 0 25 24" fill="none" xmlns="http://www.w3.org/2000/svg">
<path d="M22.5004 16.92V19.92C22.5016 20.1985 22.4445 20.4741 22.3329 20.7293C22.2214 20.9845 22.0577 21.2136 21.8525 21.4018C21.6473 21.5901 21.405 21.7335 21.1412 21.8227C20.8773 21.9119 20.5978 21.945 20.3204 21.92C17.2433 21.5856 14.2874 20.5341 11.6904 18.85C9.27425 17.3146 7.22576 15.2661 5.69042 12.85C4.0004 10.2412 2.94866 7.27097 2.62042 4.17997C2.59543 3.90344 2.6283 3.62474 2.71692 3.3616C2.80555 3.09846 2.94799 2.85666 3.13519 2.6516C3.32238 2.44653 3.55023 2.28268 3.80421 2.1705C4.0582 2.05831 4.33276 2.00024 4.61042 1.99997H7.61042C8.09573 1.9952 8.56621 2.16705 8.93418 2.48351C9.30215 2.79996 9.5425 3.23942 9.61042 3.71997C9.73704 4.68004 9.97187 5.6227 10.3104 6.52997C10.445 6.8879 10.4741 7.27689 10.3943 7.65086C10.3146 8.02482 10.1293 8.36809 9.86042 8.63998L8.59042 9.90997C10.014 12.4135 12.0869 14.4864 14.5904 15.91L15.8604 14.64C16.1323 14.3711 16.4756 14.1858 16.8495 14.1061C17.2235 14.0263 17.6125 14.0554 17.9704 14.19C18.8777 14.5285 19.8204 14.7634 20.7804 14.89C21.2662 14.9585 21.7098 15.2032 22.027 15.5775C22.3441 15.9518 22.5126 16.4296 22.5004 16.92Z" stroke="#344054" stroke-width="1.67" stroke-linecap="round" stroke-linejoin="round"/>
</svg>
